# Blender v2.76 (sub 0) OBJ File: 'paralelogram.blend'
# www.blender.org
o Cube_Cube.001
v 0.000000 0.000000 -0.500000
v 0.125000 0.125001 -0.500000
v 0.000000 0.000000 0.000000
v 0.125000 0.124999 0.000000
v -0.250000 0.000000 -0.500000
v -0.125000 0.125001 -0.500000
v -0.250000 0.000000 -0.000000
v -0.125000 0.124999 -0.000000
vn 0.707100 -0.707100 0.000000
vn -0.000000 0.000000 1.000000
vn -0.707100 0.707100 0.000000
vn 0.000000 -0.000000 -1.000000
vn 0.000000 -1.000000 0.000000
vn -0.000000 1.000000 0.000000
s off
f 4//1 3//1 1//1
f 8//2 7//2 3//2
f 8//3 6//3 5//3
f 6//4 2//4 1//4
f 3//5 7//5 5//5
f 8//6 4//6 2//6
f 2//1 4//1 1//1
f 4//2 8//2 3//2
f 7//3 8//3 5//3
f 5//4 6//4 1//4
f 1//5 3//5 5//5
f 6//6 8//6 2//6
