# Blender v2.76 (sub 0) OBJ File: ''
# www.blender.org
o Cube
v 0.707107 0.000000 0.000000
v 0.000000 0.707107 0.000000
v 0.000000 0.000000 0.000000
v 0.707107 0.000000 -1.000000
v 0.000000 0.707107 -1.000000
v 0.000000 0.000000 -1.000000
vn 0.000000 0.000000 -1.000000
vn 0.707100 0.707100 -0.000000
vn -0.000000 0.000000 1.000000
vn -1.000000 -0.000000 -0.000000
vn 0.000000 -1.000000 0.000000
s off
f 5//1 4//1 6//1
f 5//2 2//2 1//2
f 3//3 1//3 2//3
f 5//4 6//4 3//4
f 1//5 3//5 6//5
f 4//2 5//2 1//2
f 2//4 5//4 3//4
f 4//5 1//5 6//5
